<svg xmlns="http://www.w3.org/2000/svg" version="1.1" xmlns:xlink="http://www.w3.org/1999/xlink" width="512" height="512"><svg xmlns="http://www.w3.org/2000/svg" version="1.1" xmlns:xlink="http://www.w3.org/1999/xlink" width="512" height="512"><svg xmlns="http://www.w3.org/2000/svg" xmlns:xlink="http://www.w3.org/1999/xlink" width="512" zoomAndPan="magnify" viewBox="0 0 384 383.999986" height="512" preserveAspectRatio="xMidYMid meet" version="1.0"><defs><clipPath id="b71fea120b"><path d="M 0.839844 0.839844 L 365.160156 0.839844 L 365.160156 365.160156 L 0.839844 365.160156 Z M 0.839844 0.839844 " clip-rule="nonzero"></path></clipPath><clipPath id="c170305d4f"><path d="M 183 0.839844 C 283.605469 0.839844 365.160156 82.394531 365.160156 183 C 365.160156 283.605469 283.605469 365.160156 183 365.160156 C 82.394531 365.160156 0.839844 283.605469 0.839844 183 C 0.839844 82.394531 82.394531 0.839844 183 0.839844 L 183 55.488281 C 112.578125 55.488281 55.488281 112.578125 55.488281 183 C 55.488281 253.421875 112.578125 310.511719 183 310.511719 C 253.421875 310.511719 310.511719 253.421875 310.511719 183 C 310.511719 112.578125 253.421875 55.488281 183 55.488281 Z M 183 0.839844 " clip-rule="nonzero"></path></clipPath><clipPath id="917a7f8ea3"><path d="M 0.839844 0.839844 L 365.160156 0.839844 L 365.160156 365.160156 L 0.839844 365.160156 Z M 0.839844 0.839844 " clip-rule="nonzero"></path></clipPath><clipPath id="52e5b37397"><path d="M 183 0.839844 C 283.605469 0.839844 365.160156 82.394531 365.160156 183 C 365.160156 283.605469 283.605469 365.160156 183 365.160156 C 82.394531 365.160156 0.839844 283.605469 0.839844 183 C 0.839844 82.394531 82.394531 0.839844 183 0.839844 L 183 55.488281 C 112.578125 55.488281 55.488281 112.578125 55.488281 183 C 55.488281 253.421875 112.578125 310.511719 183 310.511719 C 253.421875 310.511719 310.511719 253.421875 310.511719 183 C 310.511719 112.578125 253.421875 55.488281 183 55.488281 Z M 183 0.839844 " clip-rule="nonzero"></path></clipPath><clipPath id="05f87a8c0d"><rect x="0" width="366" y="0" height="366"></rect></clipPath><clipPath id="37c5fa404d"><path d="M 48 3 L 365.160156 3 L 365.160156 365.160156 L 48 365.160156 Z M 48 3 " clip-rule="nonzero"></path></clipPath><clipPath id="a7c43b5009"><path d="M 215.144531 3.699219 C 291.929688 17.464844 351.425781 78.59375 363.105469 155.722656 C 374.785156 232.851562 336.058594 308.855469 266.796875 344.742188 C 197.53125 380.625 113.105469 368.425781 56.835938 314.398438 C 49.796875 307.636719 46.894531 297.632812 49.230469 288.152344 C 51.566406 278.675781 58.777344 271.160156 68.15625 268.445312 C 77.53125 265.726562 87.644531 268.214844 94.6875 274.976562 C 134.074219 312.796875 193.171875 321.339844 241.65625 296.21875 C 290.140625 271.097656 317.25 217.894531 309.074219 163.90625 C 300.898438 109.917969 259.25 67.125 205.503906 57.488281 C 190.648438 54.828125 180.765625 40.625 183.429688 25.773438 C 186.09375 10.917969 200.292969 1.035156 215.144531 3.699219 Z M 215.144531 3.699219 " clip-rule="nonzero"></path></clipPath><clipPath id="f5cfcca2d1"><path d="M 0 0 L 317.160156 0 L 317.160156 362.160156 L 0 362.160156 Z M 0 0 " clip-rule="nonzero"></path></clipPath><clipPath id="279f4f2034"><path d="M 167.144531 0.699219 C 243.929688 14.464844 303.425781 75.59375 315.105469 152.722656 C 326.785156 229.851562 288.058594 305.855469 218.796875 341.742188 C 149.53125 377.625 65.105469 365.425781 8.835938 311.398438 C 1.796875 304.636719 -1.105469 294.632812 1.230469 285.152344 C 3.566406 275.675781 10.777344 268.160156 20.15625 265.445312 C 29.53125 262.726562 39.644531 265.214844 46.6875 271.976562 C 86.074219 309.796875 145.171875 318.339844 193.65625 293.21875 C 242.140625 268.097656 269.25 214.894531 261.074219 160.90625 C 252.898438 106.917969 211.25 64.125 157.503906 54.488281 C 142.648438 51.828125 132.765625 37.625 135.429688 22.773438 C 138.09375 7.917969 152.292969 -1.964844 167.144531 0.699219 Z M 167.144531 0.699219 " clip-rule="nonzero"></path></clipPath><clipPath id="a4541178e3"><rect x="0" width="318" y="0" height="363"></rect></clipPath><clipPath id="739d78e97a"><rect x="0" width="366" y="0" height="366"></rect></clipPath></defs><g transform="matrix(1, 0, 0, 1, 9, 9)"><g clip-path="url(#739d78e97a)"><g clip-path="url(#b71fea120b)"><g clip-path="url(#c170305d4f)"><g><g clip-path="url(#05f87a8c0d)"><g clip-path="url(#917a7f8ea3)"><g clip-path="url(#52e5b37397)"><path fill="#2ac070" d="M 0.839844 0.839844 L 365.160156 0.839844 L 365.160156 365.160156 L 0.839844 365.160156 Z M 0.839844 0.839844 " fill-opacity="1" fill-rule="nonzero"></path></g></g></g></g></g></g><g clip-path="url(#37c5fa404d)"><g clip-path="url(#a7c43b5009)"><g transform="matrix(1, 0, 0, 1, 48, 3)"><g clip-path="url(#a4541178e3)"><g clip-path="url(#f5cfcca2d1)"><g clip-path="url(#279f4f2034)"><path fill="#1c304a" d="M -47.160156 -2.160156 L 317.160156 -2.160156 L 317.160156 362.160156 L -47.160156 362.160156 Z M -47.160156 -2.160156 " fill-opacity="1" fill-rule="nonzero"></path></g></g></g></g></g></g></g></g></svg></svg><style>@media (prefers-color-scheme: light) { :root { filter: none; } }
@media (prefers-color-scheme: dark) { :root { filter: none; } }
</style></svg>